<svg id="Layer_1" data-name="Layer 1" xmlns="http://www.w3.org/2000/svg" width="281.03" height="280.62" viewBox="0 0 281.03 280.62"><defs><style>.cls-1{fill:#033;}</style></defs><title>icon_calendar</title><path class="cls-1" d="M10.49,54.27a68.9,68.9,0,0,1,1.7-7.59c3.74-11,13.26-17.51,26-17.58q21.27-.13,42.52,0c2.83,0,3.94-.67,3.67-3.63a54.35,54.35,0,0,1,0-8.17,10.27,10.27,0,0,1,9.68-9.73,10.41,10.41,0,0,1,11.37,8.18c.79,3.45.43,7,.41,10.43,0,2,.37,2.9,2.66,2.9q42.69-.11,85.37,0c2,0,2.72-.59,2.61-2.61-.14-2.61-.11-5.23,0-7.84.24-6.64,4.63-11.11,10.82-11.11S217.81,12,218,18.69a57.47,57.47,0,0,1,0,7.19c-.26,2.73.93,3.24,3.37,3.24,15.48,0,31-.26,46.44.27,12.41.42,22.35,10.73,23.45,23.16.13,1.52.24,3.05.24,4.57q0,101.57,0,203.13c0,10.54-3.86,18.83-13,24.37a24.15,24.15,0,0,1-12.74,3.54q-114.64,0-229.29,0a25.68,25.68,0,0,1-25.44-23c-.11-.95-.36-1.88-.55-2.82Zm140.85,56.26q-57.7,0-115.43,0c-2.56,0-3.57.41-3.56,3.3q.13,73.25.07,146.5c0,5.27,1.06,6.28,6.36,6.28H263.45c5.41,0,6.44-1,6.44-6.55q0-72.93.08-145.85c0-3.1-1-3.69-3.84-3.69Q208.74,110.61,151.34,110.53Zm-.54-21.59q57.72,0,115.44.06c2.65,0,3.82-.34,3.74-3.46-.23-9.59-.06-19.19-.09-28.78,0-4.71-1.34-6.06-6-6.07-14.28,0-28.56,0-42.84,0-2.2,0-3.2.54-3,2.92s.08,4.79,0,7.19c-.15,6.78-4.25,11.27-10.43,11.44s-10.81-4.27-11.12-11.12a75.93,75.93,0,0,1,0-7.84c.11-2-.68-2.59-2.63-2.58q-42.68.06-85.35,0c-2.29,0-2.67.92-2.66,2.9,0,3.37.37,6.76-.33,10.11a10.46,10.46,0,0,1-11.12,8.53,10.28,10.28,0,0,1-10-9.77,74.16,74.16,0,0,1-.06-8.82c.12-2.34-.78-3-3-2.94-14.28.07-28.56,0-42.84,0-4.77,0-6.06,1.32-6.07,6,0,9.59.12,19.19-.08,28.78-.07,3,.9,3.53,3.67,3.53Q93.42,88.86,150.8,88.94Z" transform="translate(-10.49 -7.55)"/><path class="cls-1" d="M150.88,156c-8.61-.07-14.92-6.75-14.81-15.68A15.09,15.09,0,1,1,150.88,156Z" transform="translate(-10.49 -7.55)"/><path class="cls-1" d="M118.71,236.33a15.12,15.12,0,1,1-15-15.55A15.06,15.06,0,0,1,118.71,236.33Z" transform="translate(-10.49 -7.55)"/><path class="cls-1" d="M103.69,156a15,15,0,0,1-15.2-15.37,15.11,15.11,0,1,1,30.22.51A14.94,14.94,0,0,1,103.69,156Z" transform="translate(-10.49 -7.55)"/><path class="cls-1" d="M56.07,251.2c-8.64,0-15-6.58-15-15.49A14.78,14.78,0,0,1,56.18,221a15.11,15.11,0,1,1-.11,30.21Z" transform="translate(-10.49 -7.55)"/><path class="cls-1" d="M151.2,251.2c-8.67,0-15.12-6.54-15.13-15.35A15.08,15.08,0,1,1,151.2,251.2Z" transform="translate(-10.49 -7.55)"/><path class="cls-1" d="M261.17,141.06a15.08,15.08,0,1,1-15.56-14.93A15,15,0,0,1,261.17,141.06Z" transform="translate(-10.49 -7.55)"/><path class="cls-1" d="M136.07,188.29a15.08,15.08,0,1,1,14.85,15.39A15.07,15.07,0,0,1,136.07,188.29Z" transform="translate(-10.49 -7.55)"/><path class="cls-1" d="M198.66,203.69c-8.52.05-15.15-6.74-15.11-15.48a15.15,15.15,0,0,1,15.19-14.76,15.34,15.34,0,0,1,15,15.34C213.83,196.76,206.84,203.64,198.66,203.69Z" transform="translate(-10.49 -7.55)"/><path class="cls-1" d="M261.18,188.74a15.09,15.09,0,1,1-15-15.29A15,15,0,0,1,261.18,188.74Z" transform="translate(-10.49 -7.55)"/><path class="cls-1" d="M198.43,156.22c-8.33-.05-14.84-6.77-14.88-15.35A14.89,14.89,0,0,1,199,126.13a15.11,15.11,0,0,1,14.8,15.46A15.27,15.27,0,0,1,198.43,156.22Z" transform="translate(-10.49 -7.55)"/><path class="cls-1" d="M103.53,203.51a15.19,15.19,0,0,1-15-15.26c-.06-8.18,7-15,15.36-14.91a15.09,15.09,0,0,1-.32,30.17Z" transform="translate(-10.49 -7.55)"/><path class="cls-1" d="M41.11,188.66a15,15,0,0,1,15-15.21,15.3,15.3,0,0,1,15.16,15.21c.12,8-6.79,14.89-15,15A14.88,14.88,0,0,1,41.11,188.66Z" transform="translate(-10.49 -7.55)"/></svg>