<?xml version="1.0" encoding="utf-8"?>
<!-- Generator: Adobe Illustrator 23.0.3, SVG Export Plug-In . SVG Version: 6.00 Build 0)  -->
<svg version="1.1" id="Layer_1" xmlns="http://www.w3.org/2000/svg" xmlns:xlink="http://www.w3.org/1999/xlink" x="0px" y="0px"
	 viewBox="0 0 300 300" style="enable-background:new 0 0 300 300;" xml:space="preserve">
<style type="text/css">
	.st0{fill:#EFEEEE;}
	.st1{fill:#003333;}
</style>
<title>GCMK_4ikoner_master</title>
<g>
	<path class="st0" d="M152.3,4.4c80.7,0,145.6,65.2,145.6,146.3c0,79.8-65.7,145-145.7,145c-80.3,0-147.8-65.9-145.4-150.9
		C8.8,69.9,70.9,4.4,152.3,4.4z M182.6,150.3c-21.5,21.1-42.4,41.6-63,62c3,3.1,5.6,5.8,7.9,8.2c23.5-23.6,47.1-47.4,70.1-70.5
		c-23.2-23.3-46.7-47-69.7-70.1c-2.7,2.3-5.5,4.8-9,7.9C140,108.5,160.8,128.9,182.6,150.3z"/>
	<path class="st1" d="M182.6,150.3c-21.7-21.3-42.6-41.8-63.8-62.6c3.6-3.1,6.4-5.5,9-7.9c23,23.1,46.5,46.8,69.7,70.1
		c-23,23.1-46.6,46.8-70.1,70.5c-2.3-2.4-4.9-5.1-7.9-8.2C140.2,191.9,161.1,171.4,182.6,150.3z"/>
	<title>GCMK_4ikoner_master</title>
</g>
</svg>
