<?xml version="1.0" encoding="utf-8"?>
<!-- Generator: Adobe Illustrator 23.0.3, SVG Export Plug-In . SVG Version: 6.00 Build 0)  -->
<svg version="1.1" id="Layer_1" xmlns="http://www.w3.org/2000/svg" xmlns:xlink="http://www.w3.org/1999/xlink" x="0px" y="0px"
	 viewBox="0 0 300 300" style="enable-background:new 0 0 300 300;" xml:space="preserve">
<style type="text/css">
	.st0{fill:#003333;}
	.st1{fill:#FFFFFF;}
</style>
<title>GCMK_4ikoner_master</title>
<g>
	<path class="st0" d="M150.7,85.9c57.1,0,103,46.2,103,103.5c0,56.5-46.5,102.6-103.1,102.6c-56.8,0-104.6-46.6-102.9-106.8
		C49.1,132.3,93.1,86,150.7,85.9z M172.1,189.2c-15.2,15-30,29.5-44.6,43.9c2.1,2.2,4,4.1,5.6,5.8c16.6-16.7,33.4-33.5,49.6-49.9
		c-16.4-16.5-33.1-33.3-49.3-49.6c-1.9,1.6-3.9,3.4-6.4,5.6C142,159.6,156.7,174.1,172.1,189.2z"/>
	<path class="st1" d="M172.1,189.2c-15.4-15.1-30.2-29.6-45.1-44.3c2.5-2.2,4.5-3.9,6.4-5.6c16.3,16.4,32.9,33.1,49.3,49.6
		c-16.3,16.3-33,33.1-49.6,49.9c-1.6-1.7-3.5-3.6-5.6-5.8C142.1,218.7,156.9,204.2,172.1,189.2z"/>
</g>
</svg>
