<svg id="Layer_1" data-name="Layer 1" xmlns="http://www.w3.org/2000/svg" width="295.43" height="267.44" viewBox="0 0 295.43 267.44"><defs><style>.cls-1{fill:#033;}</style></defs><title>icon_school</title><path class="cls-1" d="M298.39,266.89c-5.61-5.6-10.62-10.59-16.28-14.87-15.16-11.45-31.82-19.67-50.54-23.25-16.06-3.07-31.74-2.43-46.28,6.26-11.24,6.72-19,16.52-24.84,28a122.28,122.28,0,0,0-8.53,22.09c-.3,1-.67,2-1.27,3.83-2.23-6.79-4-12.87-6.46-18.68-5.53-13-12.83-24.59-24.57-32.94-12.1-8.59-25.7-11.35-40.14-9.86C50,230.51,25.53,243.85,5,264.86c-.36.37-.72.74-1.11,1.07-.12.1-.36.07-.59.11-.56-.94-.27-2-.27-3Q3,159.79,3,56.49a5.62,5.62,0,0,1,2.51-5.1c23.18-17.35,48.75-28.7,78-29.8,26.52-1,48.27,9.16,64.91,30,2.3,2.88,2.3,2.84,4.53.06C171,29,194.68,19.43,223.31,21.93c27.57,2.41,51.61,13.63,73.46,30.15,1.67,1.26,1.62,2.65,1.62,4.27V266.89ZM161.1,227.14c.82-.61,1.14-.81,1.42-1.06,18.76-16.47,40.79-21.81,65.13-18.81,16.71,2,32.32,7.63,47.14,15.53,3,1.59,3,1.55,3-1.83q0-77.33,0-154.64a4.39,4.39,0,0,0-2.28-4.22A130.76,130.76,0,0,0,239,45.5C227,42.21,214.88,41,202.63,43.4,184.26,47,171.69,58.27,162.57,74a11.1,11.1,0,0,0-1.5,5.83q.06,71.76,0,143.53Zm-20.8.24V223c0-46.4-.07-92.8.1-139.2a23.29,23.29,0,0,0-3.94-13.5C125,52.78,109.36,42.7,88.17,42.3c-23.38-.44-44,7.94-63.25,20.41-1.29.83-1.32,1.9-1.32,3.16q0,77.79,0,155.57c0,2.48.48,2.76,2.64,1.55A139.4,139.4,0,0,1,56.72,210.7c19-5.3,37.85-6.16,56.73.35C123.31,214.45,131.89,220,140.3,227.38Z" transform="translate(-2.95 -21.52)"/></svg>