<svg id="Layer_1" data-name="Layer 1" xmlns="http://www.w3.org/2000/svg" width="281.31" height="281.31" viewBox="0 0 281.31 281.31"><defs><style>.cls-1{fill:#033;}</style></defs><title>icon_ticket</title><path class="cls-1" d="M233.46,90.35c4.24,0,9.32-3.07,13.68-7.81,4-4.32,4-4.25,8.13-.16,11.5,11.49,23,23,34.55,34.44,2,2,2.4,3.05.14,5.31q-83.74,83.58-167.28,167.38c-2.08,2.09-3.07,2-5.07-.05Q99.52,271,81.15,252.75c-1.73-1.72-1.9-2.67,0-4.36,3.92-3.54,7.68-7.27,9.12-12.64a19.7,19.7,0,0,0-8-21.95,20,20,0,0,0-23.68.91,56.54,56.54,0,0,0-6.19,5.9c-1.33,1.43-2.12,1.2-3.4-.08q-18.73-18.78-37.62-37.42c-1.6-1.57-1.44-2.4,0-3.87,10.23-10.13,20.37-20.33,30.55-30.51Q110.53,80.06,179.09,11.36c2.1-2.1,3.17-2.22,5.31,0Q202.51,29.81,220.94,48c1.74,1.73,1.89,2.65,0,4.32-4.31,3.78-8.23,7.81-9.47,13.85C208.83,78.92,218,90.41,233.46,90.35ZM71,192.94c27.59-.43,46.11,29.61,33.37,54.27-1.13,2.19-.91,3.36.77,5,4.27,4.12,8.46,8.32,12.45,12.7,1.91,2.09,3,2.21,5,.09q44.48-44.78,89.14-89.37c1.7-1.7,4.58-3.42,4.66-5.24.1-2.16-3.1-3.64-4.76-5.52-.29-.32-.63-.61-.93-.93a8.58,8.58,0,0,1,11.54-12.61,47.7,47.7,0,0,1,5.31,4.93c1.38,1.49,2.23,1.41,3.66,0q17.4-17.57,35-34.93c1.55-1.54,1.24-2.31-.12-3.63-4.64-4.51-9.24-9.09-13.72-13.77-1.39-1.46-2.34-1.47-4.13-.56-9.64,5-19.76,5.92-30,2.15-21.66-8-30.9-32.3-20.23-52.79.59-1.13,1.14-1.93-.06-3.11-5-4.92-10-9.91-14.9-14.93-1-1-1.64-1-2.65,0q-17.88,18-35.84,35.93c-1,1-1.05,1.71,0,2.69q2.51,2.38,4.82,5c3.38,3.8,3.32,8.76-.08,12.13s-8.22,3.54-12.12.12a47.39,47.39,0,0,1-4.44-4.41c-1.24-1.4-2-1.68-3.57-.13q-46.65,46.8-93.45,93.44c-1.43,1.42-1.52,2.19,0,3.61q7,6.54,13.64,13.39c1.47,1.5,2.64,1.76,4.52.71A35,35,0,0,1,71,192.94Z" transform="translate(-10.18 -9.74)"/><path class="cls-1" d="M208.33,140.65a8.78,8.78,0,0,1-4.94,7.94,7.57,7.57,0,0,1-9.16-1.2c-4.13-3.92-8.16-8-12-12.16a8.25,8.25,0,0,1-.33-10.61c2.31-3.05,7.1-4.61,10.32-2.58,6.18,3.87,11,9.34,15.33,15.12A5.17,5.17,0,0,1,208.33,140.65Z" transform="translate(-10.18 -9.74)"/><path class="cls-1" d="M152,101.6c0-6.54,7.06-10.93,12.62-7.38,5.75,3.67,10.28,8.9,14.45,14.27,2.12,2.73,1.11,7.59-1.35,10-2.83,2.84-7.39,3.7-10.55,1.34-5.3-3.94-9.67-8.92-14-13.88C152.14,104.81,152.08,103.15,152,101.6Z" transform="translate(-10.18 -9.74)"/></svg>