<svg id="Layer_1" data-name="Layer 1" xmlns="http://www.w3.org/2000/svg" width="188.35" height="268.2" viewBox="0 0 188.35 268.2"><defs><style>.cls-1{fill:#242424;}</style></defs><title>icon_bulb</title><path class="cls-1" d="M196.85,291.93H115.47v-4c-.06-16.75.16-33.51-.33-50.24a102.76,102.76,0,0,0-3-20.44c-2.54-10.78-10.18-18.4-17.68-25.92C84.09,180.94,75,169.67,69.41,156c-19.53-47.93.53-101.51,47-123.41,44.22-20.85,97-3.81,121.35,38.43,19,33,16.33,75.53-7.22,105.77a191.5,191.5,0,0,1-17,18.9c-11.33,11.08-16.19,24.67-16.46,40.07-.31,17.31-.17,34.61-.22,51.92C196.84,289,196.85,290.34,196.85,291.93Zm-19.09-55.68c.18-2.21.34-4.2.51-6.2,1.45-16.57,6.76-31.56,18.19-44,5.06-5.51,10.31-10.85,15.31-16.41,15.87-17.63,21.61-38.49,18.58-61.7-5.85-44.72-50-74.44-93.44-62.42C84.73,60,68.34,116.48,91,156.73c5.26,9.35,12.67,17,20.27,24.38a72.92,72.92,0,0,1,22.3,45.28c.36,3.29.69,6.57,1,9.86H146.4c.09-.91.22-1.67.22-2.42q0-39.36,0-78.72c0-1.86-.61-2.65-2.3-3.41-11.91-5.35-18.3-14.69-18.86-27.69-.65-15.09,10.62-28.24,26.05-30.9,14.54-2.51,29.3,6.78,33.81,21.27a30.36,30.36,0,0,1-16.53,36.83c-2.4,1.06-3.24,2.22-3.23,4.88.12,25.46.07,50.92.07,76.38v3.78Zm-42.82,19.56v16.86h42.49V255.81Zm9.79-132.65a11.43,11.43,0,1,0,11.6-11.35A11.54,11.54,0,0,0,144.73,123.16Z" transform="translate(-61.98 -23.73)"/></svg>